<svg xmlns="http://www.w3.org/2000/svg" width="365" height="562" viewBox="0 0 365 562" fill="none">
  <path fill-rule="evenodd" clip-rule="evenodd" d="M-3.05176e-05 562L365 562L365 162L364.768 162C364.936 119.805 365.063 78.94 364.967 69.3712C364.958 68.4641 364.332 67.6943 363.431 67.5907C354.845 66.6039 342.968 73.3182 339.187 78.6731C338.523 79.6126 337.294 80.1676 336.229 79.7343L324.031 74.7739C323.153 74.4169 322.145 74.7251 321.617 75.512L312.572 88.9878C312.112 89.6725 311.28 90.005 310.475 89.8251L303.542 88.2753C303.004 88.1551 302.54 87.8187 302.259 87.3453L293.119 71.9669C292.212 70.4407 289.83 70.776 288.948 72.3168C282.016 84.4249 265.641 63.9552 259.992 54.1915C255.152 45.7627 253.123 38.4159 251.249 31.6304C248.167 20.4741 245.505 10.8356 231.46 0.40215C231.112 0.143666 230.668 -0.0250964 230.269 0.144948C228.073 1.0811 225.353 6.34783 222.476 11.9162C219.512 17.6542 216.383 23.7124 213.492 25.6824C211.88 26.7679 209.661 26.9568 207.295 27.1583C201.347 27.6647 194.465 28.2507 193.915 43.3443C193.891 43.995 193.57 44.6463 192.983 44.9292C185.031 48.766 180.199 30.1386 177.784 20.8287C177.064 18.0545 176.559 16.1076 176.25 15.8291C171.792 11.8467 169.791 17.4659 167.598 23.6219C165.861 28.4977 164.004 33.7102 160.712 34.7555C160.393 34.8567 160.05 34.8239 159.733 34.719L143.095 29.2244C142.018 28.8686 140.86 29.4786 140.567 30.5747C140.171 32.057 139.794 33.5725 139.412 35.1025C137.771 41.6891 136.063 48.5457 132.522 54.1914C129.787 58.5858 126.535 55.6354 123.493 52.8749C120.942 50.5599 118.538 48.3786 116.709 50.7756C114.729 53.372 113.549 57.4275 112.44 61.239C111.305 65.142 110.244 68.789 108.474 70.351C106.294 72.2442 102.174 72.8943 97.9669 73.5581C94.4374 74.115 90.8461 74.6816 88.2861 76.0002C79.6712 80.4063 75.9813 73.243 73.2786 67.9961C71.0655 63.6997 69.5143 60.6883 66.4629 66.3663C65.4935 68.1394 64.2105 71.3968 62.7894 75.0047C60.5777 80.6198 58.0314 87.084 55.8129 90.1234C54.3541 92.1411 52.0684 90.4415 48.8773 88.0687C43.1352 83.799 34.4614 77.3493 22.3982 86.4553C21.3557 87.2423 19.8189 86.9432 19.1991 85.7935C12.0047 72.4477 5.32069 68.2576 2.06935 66.9512C0.989243 66.5172 0.00227424 67.1344 0.00227413 68.2985C0.00227332 76.9596 0.00211726 113.897 0.00189912 162L7.03386e-06 162L-3.05176e-05 562Z" fill="white"/>
</svg>