<svg xmlns="http://www.w3.org/2000/svg" width="35" height="28" viewBox="0 0 35 28" fill="none">
  <path d="M2.78583 16.8514C1.68662 15.0194 1.68662 12.7306 2.78583 10.8986V10.8986C3.12127 10.3396 3.67697 9.94794 4.31627 9.82008L6.92636 9.29806C7.08186 9.26696 7.22203 9.18356 7.32355 9.06174L12.0458 3.39498C13.2284 1.97592 13.8197 1.26638 14.3473 1.45742C14.875 1.64846 14.875 2.57207 14.875 4.41928L14.875 23.3307C14.875 25.1779 14.875 26.1015 14.3473 26.2926C13.8197 26.4836 13.2284 25.7741 12.0458 24.355L7.32355 18.6883C7.22203 18.5664 7.08186 18.483 6.92636 18.4519L4.31628 17.9299C3.67697 17.8021 3.12127 17.4104 2.78583 16.8514V16.8514Z" stroke="black" stroke-width="2"/>
  <path d="M21.8679 8.42447C23.3061 9.86262 24.1176 11.8109 24.1256 13.8447C24.1336 15.8786 23.3375 17.8331 21.9107 19.2826" stroke="#222222" stroke-width="2" stroke-linecap="round"/>
  <path d="M28.2223 5.1541C30.5233 7.45514 31.8217 10.5723 31.8345 13.8265C31.8474 17.0806 30.5736 20.208 28.2907 22.5271" stroke="#222222" stroke-width="2" stroke-linecap="round"/>
</svg>